<svg xmlns="http://www.w3.org/2000/svg" width="16.159" height="16.252" viewBox="0 0 16.159 16.252"><path d="M14.542,1160.55l4.617,4.617-1.385,1.385-4.617-4.617v-.739l-.277-.277A5.874,5.874,0,0,1,9,1162.3a5.576,5.576,0,0,1-4.248-1.754A6.09,6.09,0,0,1,3,1156.3a5.577,5.577,0,0,1,1.754-4.248A6.09,6.09,0,0,1,9,1150.3a5.716,5.716,0,0,1,4.248,1.754A6.09,6.09,0,0,1,15,1156.3a5.874,5.874,0,0,1-1.385,3.878l.277.277h.646Zm-8.5-1.2A3.9,3.9,0,0,0,9,1160.55a4.042,4.042,0,0,0,2.955-1.2,4.237,4.237,0,0,0,0-5.91,3.9,3.9,0,0,0-2.955-1.2,4.042,4.042,0,0,0-2.955,1.2,3.9,3.9,0,0,0-1.2,2.955A4.272,4.272,0,0,0,6.047,1159.349Z" transform="translate(-3 -1150.3)" opacity="0.3"/></svg>